<svg xmlns="http://www.w3.org/2000/svg" xmlns:xlink="http://www.w3.org/1999/xlink" width="500" zoomAndPan="magnify" viewBox="0 0 375 374.999991" height="500" preserveAspectRatio="xMidYMid meet" version="1.0"><defs><clipPath id="67eecba894"><path d="M 71 160 L 304 160 L 304 233.410156 L 71 233.410156 Z M 71 160 " clip-rule="nonzero"/></clipPath></defs><path fill="#f6bb7d" d="M 278.359375 124.75 C 265.957031 108.203125 234.832031 130.589844 187.449219 130.703125 C 140.066406 130.621094 108.925781 108.257812 96.535156 124.8125 C 73.6875 155.335938 121.941406 183.789062 187.46875 183.855469 C 252.996094 183.742188 301.230469 155.257812 278.359375 124.75 " fill-opacity="1" fill-rule="nonzero"/><path fill="#b81919" d="M 312.746094 145.859375 C 297.789062 110.582031 268.625 152.007812 187.457031 152.035156 C 106.289062 152.066406 77.09375 110.660156 62.164062 145.945312 C 47.214844 181.273438 98.8125 204.269531 187.472656 204.238281 C 276.136719 204.207031 327.71875 181.175781 312.746094 145.859375 " fill-opacity="1" fill-rule="nonzero"/><g clip-path="url(#67eecba894)"><path fill="#f6bb7d" d="M 296.320312 167.542969 C 281.46875 149.121094 244.203125 174.050781 187.464844 174.179688 C 130.726562 174.089844 93.441406 149.1875 78.605469 167.621094 C 51.246094 201.609375 109.023438 233.289062 187.488281 233.359375 C 265.945312 233.234375 323.703125 201.511719 296.320312 167.542969 " fill-opacity="1" fill-rule="nonzero"/></g><path fill="#ffd600" d="M 82.738281 148.632812 C 81.804688 147.75 81.75 146.285156 82.621094 145.339844 C 82.898438 145.035156 89.554688 137.953125 99.484375 140.5625 C 103.519531 141.625 105.546875 144.546875 107.328125 147.125 C 108.707031 149.117188 109.898438 150.832031 111.816406 151.492188 C 114.421875 152.378906 116.113281 151.527344 118.664062 150.234375 C 121.75 148.679688 125.589844 146.738281 131.691406 148.15625 C 137.242188 149.449219 139.988281 153.03125 142.195312 155.910156 C 144.457031 158.863281 145.769531 160.402344 148.625 160.433594 C 151.105469 160.460938 152.8125 159.5 154.972656 158.277344 C 157.96875 156.589844 161.699219 154.484375 168.328125 154.714844 C 173.851562 154.910156 176.621094 157.671875 179.085938 160.109375 C 181.519531 162.519531 183.609375 164.601562 188.617188 164.601562 C 193.628906 164.605469 195.726562 162.523438 198.15625 160.109375 C 200.605469 157.675781 203.386719 154.910156 208.910156 154.71875 C 215.542969 154.484375 219.273438 156.589844 222.265625 158.28125 C 224.425781 159.5 226.132812 160.464844 228.613281 160.4375 C 231.46875 160.40625 232.78125 158.863281 235.042969 155.914062 C 237.246094 153.035156 239.996094 149.453125 245.546875 148.160156 C 251.648438 146.742188 255.492188 148.683594 258.574219 150.242188 C 261.128906 151.53125 262.816406 152.386719 265.421875 151.496094 C 267.339844 150.839844 268.53125 149.121094 269.910156 147.132812 C 271.695312 144.550781 273.71875 141.628906 277.757812 140.570312 C 287.6875 137.960938 294.335938 145.042969 294.621094 145.347656 C 295.5 146.304688 295.4375 147.792969 294.476562 148.671875 C 293.519531 149.550781 292.066406 149.546875 291.144531 148.53125 C 290.949219 148.328125 286.089844 143.25 278.957031 145.125 C 276.609375 145.742188 275.300781 147.625 273.789062 149.804688 C 272.171875 152.144531 270.339844 154.792969 266.953125 155.949219 C 262.460938 157.488281 259.261719 155.867188 256.4375 154.441406 C 253.667969 153.039062 251.050781 151.714844 246.617188 152.75 C 242.710938 153.65625 240.808594 156.140625 238.792969 158.773438 C 236.523438 161.734375 233.953125 165.089844 228.664062 165.144531 C 224.917969 165.183594 222.390625 163.757812 219.945312 162.378906 C 217.210938 160.835938 214.378906 159.238281 209.074219 159.421875 C 205.402344 159.554688 203.671875 161.273438 201.480469 163.445312 C 198.851562 166.058594 195.578125 169.308594 188.621094 169.308594 C 181.65625 169.308594 178.386719 166.050781 175.757812 163.445312 C 173.574219 161.28125 171.839844 159.550781 168.164062 159.421875 C 162.859375 159.234375 160.03125 160.835938 157.292969 162.375 C 154.847656 163.757812 152.324219 165.183594 148.574219 165.140625 C 143.285156 165.082031 140.71875 161.734375 138.449219 158.769531 C 136.429688 156.140625 134.523438 153.65625 130.621094 152.742188 C 126.191406 151.714844 123.570312 153.035156 120.796875 154.4375 C 117.976562 155.863281 114.777344 157.480469 110.289062 155.945312 C 106.898438 154.789062 105.066406 152.140625 103.449219 149.800781 C 101.9375 147.617188 100.632812 145.734375 98.28125 145.117188 C 91.152344 143.242188 86.292969 148.3125 86.089844 148.53125 C 85.199219 149.476562 83.710938 149.53125 82.761719 148.652344 C 82.753906 148.644531 82.746094 148.636719 82.738281 148.632812 " fill-opacity="1" fill-rule="nonzero"/><path fill="#592813" d="M 227.566406 194 C 227.566406 190.179688 224.460938 187.078125 220.632812 187.078125 C 216.796875 187.078125 213.691406 190.179688 213.691406 194 C 213.691406 197.824219 216.796875 200.921875 220.628906 200.921875 C 224.460938 200.921875 227.566406 197.824219 227.566406 194 " fill-opacity="1" fill-rule="nonzero"/><path fill="#592813" d="M 147.347656 193.996094 C 147.347656 190.175781 150.453125 187.078125 154.285156 187.078125 C 158.113281 187.078125 161.21875 190.179688 161.21875 193.996094 C 161.21875 197.820312 158.113281 200.921875 154.285156 200.921875 C 150.453125 200.921875 147.347656 197.820312 147.347656 193.996094 " fill-opacity="1" fill-rule="nonzero"/><path fill="#592813" d="M 178.808594 208.613281 C 178.710938 208.523438 178.617188 208.429688 178.523438 208.332031 C 175.835938 205.5625 175.867188 202.136719 175.882812 201.753906 C 175.921875 200.453125 177.011719 199.433594 178.3125 199.480469 C 179.609375 199.519531 180.621094 200.59375 180.59375 201.882812 C 180.589844 201.964844 180.621094 203.765625 181.949219 205.101562 C 181.980469 205.132812 182.015625 205.164062 182.046875 205.195312 C 183.195312 206.285156 185.015625 206.835938 187.457031 206.835938 C 189.992188 206.839844 191.859375 206.242188 193.003906 205.0625 C 194.320312 203.703125 194.320312 201.925781 194.320312 201.910156 C 194.28125 200.609375 195.296875 199.523438 196.601562 199.480469 C 197.898438 199.4375 198.992188 200.453125 199.035156 201.753906 C 199.046875 202.132812 199.078125 205.5625 196.390625 208.332031 C 194.324219 210.464844 191.320312 211.542969 187.457031 211.542969 C 183.765625 211.542969 180.863281 210.558594 178.808594 208.613281 " fill-opacity="1" fill-rule="nonzero"/></svg>