<svg xmlns="http://www.w3.org/2000/svg" xmlns:xlink="http://www.w3.org/1999/xlink" width="500" zoomAndPan="magnify" viewBox="0 0 375 374.999991" height="500" preserveAspectRatio="xMidYMid meet" version="1.0"><defs><g/><clipPath id="1205f205ed"><path d="M 39 94 L 336 94 L 336 269 L 39 269 Z M 39 94 " clip-rule="nonzero"/></clipPath><clipPath id="d0bed87d26"><path d="M 39.101562 269.175781 L 39.914062 92.308594 L 336.503906 93.667969 L 335.691406 270.535156 Z M 39.101562 269.175781 " clip-rule="nonzero"/></clipPath><clipPath id="20c2491304"><path d="M 39.671875 144.304688 L 39.140625 260.855469 C 39.128906 263.113281 40.101562 265.265625 41.804688 266.75 C 43.507812 268.234375 45.769531 268.90625 48.007812 268.585938 L 326.371094 228.945312 C 331.488281 228.21875 335.300781 223.847656 335.324219 218.675781 L 335.859375 102.128906 C 335.867188 99.867188 334.894531 97.714844 333.191406 96.230469 C 331.488281 94.746094 329.226562 94.078125 326.988281 94.394531 L 48.625 134.035156 C 43.507812 134.765625 39.699219 139.136719 39.671875 144.304688 " clip-rule="nonzero"/></clipPath><clipPath id="46895e658a"><path d="M 39 94 L 337 94 L 337 269 L 39 269 Z M 39 94 " clip-rule="nonzero"/></clipPath><clipPath id="df1b3845cf"><path d="M 39.097656 269.855469 L 39.914062 92.105469 L 336.160156 93.46875 L 335.34375 271.214844 Z M 39.097656 269.855469 " clip-rule="nonzero"/></clipPath><clipPath id="5fafe1a0ca"><path d="M 39.101562 269.855469 L 39.914062 93.324219 L 336.757812 94.6875 L 335.945312 271.21875 Z M 39.101562 269.855469 " clip-rule="nonzero"/></clipPath><clipPath id="4280a5cf48"><path d="M 39.675781 144.542969 L 39.144531 260.871094 C 39.132812 263.128906 40.105469 265.273438 41.8125 266.757812 C 43.515625 268.238281 45.78125 268.90625 48.019531 268.589844 L 326.621094 229.027344 C 331.742188 228.300781 335.554688 223.9375 335.582031 218.777344 L 336.113281 102.449219 C 336.125 100.195312 335.152344 98.046875 333.445312 96.566406 C 331.742188 95.085938 329.476562 94.414062 327.238281 94.734375 L 48.636719 134.292969 C 43.515625 135.023438 39.703125 139.382812 39.675781 144.542969 " clip-rule="nonzero"/></clipPath><clipPath id="73bc3eb587"><path d="M 262 156 L 323 156 L 323 215 L 262 215 Z M 262 156 " clip-rule="nonzero"/></clipPath><clipPath id="5999c1a58a"><path d="M 321.265625 155.628906 L 326.660156 211.140625 L 263.421875 217.285156 L 258.027344 161.777344 Z M 321.265625 155.628906 " clip-rule="nonzero"/></clipPath><clipPath id="3ceec316e2"><path d="M 321.265625 155.628906 L 326.660156 211.140625 L 263.421875 217.285156 L 258.027344 161.777344 Z M 321.265625 155.628906 " clip-rule="nonzero"/></clipPath><clipPath id="b4d122b2f5"><path d="M 265 158 L 326 158 L 326 217 L 265 217 Z M 265 158 " clip-rule="nonzero"/></clipPath><clipPath id="9139c4c88b"><path d="M 324.207031 157.601562 L 329.601562 213.113281 L 266.359375 219.257812 L 260.964844 163.75 Z M 324.207031 157.601562 " clip-rule="nonzero"/></clipPath><clipPath id="43ca865e54"><path d="M 324.207031 157.601562 L 329.601562 213.113281 L 266.359375 219.257812 L 260.964844 163.75 Z M 324.207031 157.601562 " clip-rule="nonzero"/></clipPath></defs><g clip-path="url(#1205f205ed)"><g clip-path="url(#d0bed87d26)"><g clip-path="url(#20c2491304)"><path fill="#ffffff" d="M 39.097656 269.855469 L 39.914062 91.628906 L 335.828125 92.988281 L 335.007812 271.214844 Z M 39.097656 269.855469 " fill-opacity="1" fill-rule="nonzero"/></g></g></g><g clip-path="url(#46895e658a)"><g clip-path="url(#df1b3845cf)"><g clip-path="url(#5fafe1a0ca)"><g clip-path="url(#4280a5cf48)"><path stroke-linecap="butt" transform="matrix(0.003436, -0.74861, 0.750675, 0.00344548, 39.102402, 269.855255)" fill="none" stroke-linejoin="miter" d="M 167.393243 -0.00237679 L 12.001127 0.00119035 C 8.985113 -0.000615642 6.126453 1.308178 4.15412 3.591201 C 2.18698 5.868996 1.308611 8.891134 1.744983 11.870828 L 56.299918 382.75586 C 57.301844 389.573259 63.153605 394.625237 70.046609 394.630112 L 225.438725 394.626545 C 228.449521 394.628374 231.313399 393.319557 233.280515 391.036558 C 235.247654 388.758762 236.131241 385.736601 235.689651 382.756931 L 181.139934 11.871875 C 180.132791 5.0545 174.286247 0.00249798 167.393243 -0.00237679 " stroke="#b81f37" stroke-width="20" stroke-opacity="1" stroke-miterlimit="4"/></g></g></g></g><g fill="#b81f37" fill-opacity="1"><g transform="translate(57.44258, 194.190671)"><g><path d="M -0.222656 0.03125 L 11.914062 -1.734375 L 12.117188 -17.832031 L 20.261719 -19.019531 L 20.058594 -2.917969 L 32.140625 -4.675781 L 32.683594 -45.269531 L 20.546875 -43.503906 L 20.386719 -28.65625 L 12.1875 -27.460938 L 12.402344 -42.320312 L 0.324219 -40.5625 Z M -0.222656 0.03125 "/></g></g></g><g fill="#b81f37" fill-opacity="1"><g transform="translate(92.516155, 189.087692)"><g><path d="M 18.78125 -1.601562 C 32.1875 -3.550781 39.742188 -16.589844 37.757812 -30.222656 C 36.273438 -40.417969 29.085938 -45.878906 18.390625 -44.320312 C 4.925781 -42.363281 -2.640625 -29.4375 -0.640625 -15.695312 C 0.839844 -5.496094 8.085938 -0.0429688 18.78125 -1.601562 Z M 18.386719 -12.070312 C 14.566406 -11.511719 12.054688 -13.976562 11.371094 -18.6875 C 10.425781 -25.167969 12.632812 -32.960938 18.671875 -33.839844 C 22.550781 -34.402344 25.117188 -31.945312 25.800781 -27.238281 C 26.742188 -20.753906 24.539062 -12.964844 18.386719 -12.070312 Z M 18.386719 -12.070312 "/></g></g></g><g fill="#b81f37" fill-opacity="1"><g transform="translate(132.299475, 183.299474)"><g><path d="M 7.371094 -1.070312 L 19.449219 -2.828125 L 19.824219 -32.929688 L 28.46875 -34.1875 L 28.636719 -44.679688 L -0.785156 -40.398438 L -0.902344 -29.914062 L 7.742188 -31.171875 Z M 7.371094 -1.070312 "/></g></g></g><g fill="#b81f37" fill-opacity="1"><g transform="translate(162.275442, 178.938164)"><g><path d="M -0.222656 0.03125 L 14.792969 -2.152344 C 29.367188 -4.273438 36.136719 -14.140625 33.921875 -29.378906 C 32.453125 -39.464844 25.644531 -44.246094 14.617188 -42.640625 L 0.324219 -40.5625 Z M 11.597656 -11.304688 L 11.832031 -32.617188 L 14.9375 -33.070312 C 18.761719 -33.625 21.199219 -31.261719 21.890625 -26.496094 C 23.125 -18.019531 20.574219 -12.613281 14.589844 -11.742188 Z M 11.597656 -11.304688 "/></g></g></g><g fill="#b81f37" fill-opacity="1"><g transform="translate(198.290969, 173.698136)"><g><path d="M 18.78125 -1.601562 C 32.1875 -3.550781 39.742188 -16.589844 37.757812 -30.222656 C 36.273438 -40.417969 29.085938 -45.878906 18.390625 -44.320312 C 4.925781 -42.363281 -2.640625 -29.4375 -0.640625 -15.695312 C 0.839844 -5.496094 8.085938 -0.0429688 18.78125 -1.601562 Z M 18.386719 -12.070312 C 14.566406 -11.511719 12.054688 -13.976562 11.371094 -18.6875 C 10.425781 -25.167969 12.632812 -32.960938 18.671875 -33.839844 C 22.550781 -34.402344 25.117188 -31.945312 25.800781 -27.238281 C 26.742188 -20.753906 24.539062 -12.964844 18.386719 -12.070312 Z M 18.386719 -12.070312 "/></g></g></g><g fill="#b81f37" fill-opacity="1"><g transform="translate(238.074288, 167.909919)"><g><path d="M 15.589844 -1.363281 C 20.464844 -2.070312 25.105469 -5.578125 27.617188 -10.46875 L 27.671875 -10.476562 L 28.203125 -4.105469 L 36.738281 -5.34375 L 37.011719 -28.753906 L 16.007812 -25.699219 L 15.910156 -18.609375 L 25.542969 -20.070312 C 25.140625 -15.824219 22.566406 -12.902344 18.632812 -12.332031 C 14.699219 -11.757812 12.09375 -14.09375 11.386719 -18.972656 C 10.515625 -24.957031 12.1875 -32.894531 17.5625 -33.675781 C 20.058594 -34.039062 21.976562 -32.507812 22.707031 -29.445312 L 33.832031 -33.101562 C 32.179688 -40.953125 25.539062 -45.363281 17.007812 -44.121094 C 3.820312 -42.203125 -2.5625 -28.882812 -0.546875 -15.027344 C 0.855469 -5.386719 6.832031 -0.0898438 15.589844 -1.363281 Z M 15.589844 -1.363281 "/></g></g></g><g fill="#b81f37" fill-opacity="1"><g transform="translate(64.46149, 242.432738)"><g><path d="M -0.222656 0.03125 L 11.914062 -1.734375 L 12.117188 -17.832031 L 20.261719 -19.019531 L 20.058594 -2.917969 L 32.140625 -4.675781 L 32.683594 -45.269531 L 20.546875 -43.503906 L 20.386719 -28.65625 L 12.1875 -27.460938 L 12.402344 -42.320312 L 0.324219 -40.5625 Z M -0.222656 0.03125 "/></g></g></g><g fill="#b81f37" fill-opacity="1"><g transform="translate(99.535065, 237.329759)"><g><path d="M 16.007812 -1.199219 C 26.480469 -2.722656 32.273438 -8.429688 32.421875 -17.109375 L 32.738281 -45.277344 L 20.660156 -43.519531 L 20.316406 -16.707031 C 20.269531 -13.925781 18.777344 -12.125 16.003906 -11.722656 C 13.402344 -11.34375 12.019531 -12.667969 12.011719 -15.441406 L 12.292969 -42.304688 L 0.15625 -40.539062 L -0.0195312 -13.351562 C -0.144531 -4.109375 5.535156 0.328125 16.007812 -1.199219 Z M 16.007812 -1.199219 "/></g></g></g><g fill="#b81f37" fill-opacity="1"><g transform="translate(134.553228, 232.234841)"><g><path d="M -0.222656 0.03125 L 10.640625 -1.546875 L 10.925781 -27.957031 L 11.039062 -27.972656 L 22.164062 -3.226562 L 36.40625 -5.296875 L 36.949219 -45.890625 L 26.089844 -44.308594 L 25.746094 -17.890625 L 25.636719 -17.875 L 14.5625 -42.632812 L 0.324219 -40.5625 Z M -0.222656 0.03125 "/></g></g></g><g fill="#b81f37" fill-opacity="1"><g transform="translate(173.893285, 226.511116)"><g><path d="M 7.371094 -1.070312 L 19.449219 -2.828125 L 19.824219 -32.929688 L 28.46875 -34.1875 L 28.636719 -44.679688 L -0.785156 -40.398438 L -0.902344 -29.914062 L 7.742188 -31.171875 Z M 7.371094 -1.070312 "/></g></g></g><g fill="#b81f37" fill-opacity="1"><g transform="translate(203.869246, 222.149807)"><g><path d="M -0.222656 0.03125 L 23.660156 -3.441406 L 23.785156 -13.082031 L 11.539062 -11.296875 L 11.609375 -18.210938 L 21.140625 -19.597656 L 21.238281 -27.875 L 11.761719 -26.496094 L 11.832031 -32.617188 L 23.527344 -34.316406 L 23.652344 -43.957031 L 0.324219 -40.5625 Z M -0.222656 0.03125 "/></g></g></g><g fill="#b81f37" fill-opacity="1"><g transform="translate(229.412511, 218.433426)"><g><path d="M 25.652344 -2.601562 C 28.476562 -3.011719 31.855469 -4.691406 33.96875 -6.867188 L 32.175781 -12.207031 C 31.535156 -11.546875 30.910156 -11.175781 30.246094 -11.078125 C 29.582031 -10.980469 29.066406 -11.414062 28.894531 -12.578125 L 28.316406 -16.171875 C 28.105469 -18.40625 27.246094 -20.035156 25.074219 -20.566406 L 25.066406 -20.621094 C 30.308594 -23.082031 32.457031 -28.542969 31.617188 -34.308594 C 30.628906 -41.121094 25.035156 -44.15625 15.949219 -42.835938 L 0.324219 -40.5625 L -0.222656 0.03125 L 11.914062 -1.734375 L 12.074219 -16.1875 L 14.070312 -16.476562 C 15.34375 -16.660156 16.429688 -15.800781 16.6875 -14.425781 L 17.644531 -8.621094 C 18.296875 -4.53125 21.164062 -1.949219 25.652344 -2.601562 Z M 12.164062 -24.121094 L 12.265625 -33.527344 L 15.371094 -33.980469 C 17.753906 -34.328125 19.269531 -33.246094 19.597656 -30.972656 C 20.121094 -27.371094 18.535156 -25.046875 15.15625 -24.554688 Z M 12.164062 -24.121094 "/></g></g></g><g clip-path="url(#73bc3eb587)"><g clip-path="url(#5999c1a58a)"><g clip-path="url(#3ceec316e2)"><path fill="#ffffff" d="M 322.535156 170.222656 C 322.5 169.472656 322.355469 168.742188 322.105469 168.03125 C 321.855469 167.320312 321.511719 166.660156 321.066406 166.054688 C 320.625 165.445312 320.101562 164.914062 319.503906 164.460938 C 318.90625 164.003906 318.253906 163.644531 317.546875 163.382812 L 320.203125 159.402344 C 320.386719 159.121094 320.488281 158.8125 320.503906 158.476562 C 320.519531 158.140625 320.449219 157.824219 320.289062 157.527344 C 320.132812 157.230469 319.90625 156.996094 319.617188 156.824219 C 319.332031 156.652344 319.019531 156.566406 318.683594 156.570312 L 312.648438 156.589844 C 312.304688 156.589844 311.984375 156.679688 311.695312 156.863281 C 311.402344 157.042969 311.179688 157.289062 311.023438 157.59375 C 310.871094 157.902344 310.808594 158.226562 310.839844 158.570312 C 310.871094 158.914062 310.988281 159.222656 311.191406 159.5 L 313.792969 162.976562 C 313.3125 163.039062 312.847656 163.144531 312.386719 163.292969 C 311.929688 163.441406 311.488281 163.632812 311.066406 163.863281 C 310.640625 164.097656 310.246094 164.363281 309.871094 164.671875 C 309.5 164.976562 309.160156 165.316406 308.847656 165.6875 C 308.539062 166.058594 308.269531 166.453125 308.035156 166.875 C 307.796875 167.296875 307.605469 167.738281 307.453125 168.195312 C 307.300781 168.652344 307.191406 169.121094 307.125 169.601562 C 307.058594 170.078125 307.039062 170.558594 307.066406 171.042969 C 307.121094 172.097656 308.0625 196.875 275.828125 199.074219 C 274.996094 199.132812 274.195312 199.320312 273.421875 199.640625 C 272.652344 199.957031 271.953125 200.390625 271.320312 200.9375 C 270.6875 201.480469 270.160156 202.113281 269.734375 202.832031 C 269.308594 203.550781 269.003906 204.316406 268.828125 205.132812 L 265.449219 202.996094 C 265.164062 202.816406 264.855469 202.71875 264.519531 202.710938 C 264.183594 202.703125 263.871094 202.785156 263.578125 202.949219 C 263.285156 203.117188 263.058594 203.347656 262.894531 203.640625 C 262.730469 203.933594 262.652344 204.246094 262.660156 204.582031 L 262.832031 210.628906 C 262.839844 210.972656 262.941406 211.285156 263.128906 211.574219 C 263.316406 211.863281 263.566406 212.078125 263.875 212.226562 C 264.1875 212.371094 264.511719 212.425781 264.855469 212.386719 C 265.195312 212.347656 265.5 212.222656 265.773438 212.011719 L 269.058594 209.421875 C 269.34375 210.21875 269.746094 210.949219 270.265625 211.613281 C 270.789062 212.28125 271.402344 212.84375 272.109375 213.308594 C 272.816406 213.773438 273.578125 214.113281 274.394531 214.328125 C 275.210938 214.542969 276.039062 214.621094 276.882812 214.5625 C 324.171875 211.335938 322.558594 170.632812 322.535156 170.222656 Z M 274.644531 210.578125 C 274.453125 210.582031 274.265625 210.550781 274.085938 210.480469 C 273.90625 210.414062 273.742188 210.316406 273.597656 210.1875 C 273.453125 210.058594 273.339844 209.90625 273.253906 209.734375 C 273.164062 209.5625 273.113281 209.378906 273.09375 209.1875 C 273.089844 209.144531 273.085938 209.105469 273.082031 209.066406 C 273.078125 208.863281 273.113281 208.664062 273.1875 208.476562 C 273.261719 208.285156 273.371094 208.117188 273.511719 207.972656 C 273.652344 207.824219 273.816406 207.710938 274.003906 207.628906 C 274.191406 207.550781 274.386719 207.507812 274.589844 207.503906 C 315.914062 206.789062 315.761719 171.03125 315.734375 169.507812 C 315.730469 169.304688 315.765625 169.109375 315.839844 168.917969 C 315.914062 168.730469 316.023438 168.5625 316.164062 168.414062 C 316.304688 168.269531 316.46875 168.15625 316.65625 168.074219 C 316.839844 167.992188 317.035156 167.949219 317.238281 167.945312 C 318.078125 167.925781 318.847656 168.59375 318.796875 169.449219 C 318.8125 170.128906 318.992188 186.167969 307.480469 198.144531 C 299.773438 206.148438 288.726562 210.332031 274.644531 210.578125 Z M 274.644531 210.578125 " fill-opacity="1" fill-rule="nonzero"/></g></g></g><g clip-path="url(#b4d122b2f5)"><g clip-path="url(#9139c4c88b)"><g clip-path="url(#43ca865e54)"><path fill="#b81f37" d="M 325.472656 172.195312 C 325.4375 171.445312 325.296875 170.714844 325.046875 170.003906 C 324.796875 169.292969 324.449219 168.632812 324.007812 168.027344 C 323.5625 167.417969 323.042969 166.886719 322.441406 166.433594 C 321.84375 165.976562 321.191406 165.621094 320.488281 165.355469 L 323.140625 161.375 C 323.328125 161.09375 323.429688 160.785156 323.445312 160.449219 C 323.460938 160.113281 323.386719 159.796875 323.230469 159.5 C 323.070312 159.207031 322.847656 158.972656 322.558594 158.796875 C 322.269531 158.625 321.957031 158.539062 321.621094 158.542969 L 315.585938 158.5625 C 315.242188 158.5625 314.925781 158.652344 314.632812 158.835938 C 314.339844 159.015625 314.117188 159.261719 313.964844 159.566406 C 313.808594 159.875 313.75 160.199219 313.777344 160.542969 C 313.808594 160.886719 313.925781 161.195312 314.132812 161.472656 L 316.730469 164.949219 C 316.253906 165.011719 315.785156 165.117188 315.328125 165.265625 C 314.867188 165.414062 314.425781 165.605469 314.003906 165.835938 C 313.582031 166.070312 313.183594 166.339844 312.8125 166.644531 C 312.4375 166.953125 312.097656 167.289062 311.789062 167.660156 C 311.480469 168.03125 311.207031 168.425781 310.972656 168.847656 C 310.738281 169.269531 310.542969 169.710938 310.390625 170.167969 C 310.238281 170.625 310.128906 171.09375 310.066406 171.574219 C 310 172.050781 309.980469 172.53125 310.003906 173.015625 C 310.058594 174.070312 311.003906 198.847656 278.765625 201.046875 C 277.933594 201.105469 277.132812 201.292969 276.363281 201.613281 C 275.589844 201.929688 274.890625 202.363281 274.257812 202.910156 C 273.628906 203.457031 273.101562 204.085938 272.671875 204.804688 C 272.246094 205.523438 271.945312 206.289062 271.765625 207.105469 L 268.386719 204.96875 C 268.105469 204.789062 267.796875 204.691406 267.460938 204.683594 C 267.125 204.675781 266.808594 204.757812 266.519531 204.921875 C 266.226562 205.089844 265.996094 205.320312 265.832031 205.613281 C 265.667969 205.90625 265.589844 206.21875 265.601562 206.554688 L 265.769531 212.601562 C 265.78125 212.945312 265.878906 213.261719 266.066406 213.546875 C 266.253906 213.835938 266.503906 214.054688 266.816406 214.199219 C 267.125 214.34375 267.453125 214.398438 267.792969 214.359375 C 268.136719 214.320312 268.441406 214.195312 268.710938 213.984375 L 272 211.394531 C 272.28125 212.191406 272.683594 212.921875 273.207031 213.585938 C 273.730469 214.253906 274.34375 214.816406 275.046875 215.28125 C 275.753906 215.746094 276.515625 216.085938 277.332031 216.300781 C 278.148438 216.515625 278.980469 216.59375 279.820312 216.535156 C 327.113281 213.308594 325.496094 172.605469 325.472656 172.195312 Z M 277.585938 212.550781 C 277.390625 212.554688 277.207031 212.523438 277.023438 212.453125 C 276.84375 212.386719 276.683594 212.289062 276.539062 212.160156 C 276.394531 212.03125 276.277344 211.878906 276.191406 211.707031 C 276.105469 211.535156 276.050781 211.351562 276.035156 211.160156 C 276.03125 211.117188 276.027344 211.078125 276.023438 211.039062 C 276.019531 210.835938 276.054688 210.636719 276.128906 210.449219 C 276.203125 210.257812 276.3125 210.089844 276.453125 209.945312 C 276.59375 209.796875 276.757812 209.683594 276.945312 209.601562 C 277.128906 209.523438 277.324219 209.480469 277.527344 209.476562 C 318.855469 208.761719 318.699219 173.003906 318.675781 171.480469 C 318.671875 171.277344 318.707031 171.082031 318.78125 170.890625 C 318.855469 170.703125 318.960938 170.535156 319.101562 170.386719 C 319.246094 170.242188 319.40625 170.128906 319.59375 170.046875 C 319.78125 169.964844 319.972656 169.921875 320.175781 169.917969 C 321.019531 169.898438 321.789062 170.566406 321.734375 171.421875 C 321.75 172.101562 321.929688 188.140625 310.417969 200.117188 C 302.710938 208.121094 291.664062 212.304688 277.585938 212.550781 Z M 277.585938 212.550781 " fill-opacity="1" fill-rule="nonzero"/></g></g></g><path stroke-linecap="round" transform="matrix(0.514355, 0.353174, -0.356686, 0.51947, 315.870716, 201.874616)" fill="none" stroke-linejoin="miter" d="M 2.002988 2.000258 L 20.221251 1.999049 " stroke="#b81f37" stroke-width="4" stroke-opacity="1" stroke-miterlimit="4"/><path stroke-linecap="round" transform="matrix(0.523127, 0.359197, -0.356686, 0.51947, 286.341607, 181.598998)" fill="none" stroke-linejoin="miter" d="M 16.003716 2.000574 L 35.740104 2.001723 " stroke="#b81f37" stroke-width="4" stroke-opacity="1" stroke-miterlimit="4"/><path stroke-linecap="butt" transform="matrix(2.092506, 1.436787, -1.426744, 2.077879, 285.628229, 182.637938)" fill-opacity="1" fill="#b81f37" fill-rule="nonzero" stroke-linejoin="miter" d="M 3.50065 0.000164724 C 3.499503 0.198349 3.461982 0.389727 3.385944 0.573899 C 3.309907 0.758071 3.201545 0.919476 3.060461 1.060269 C 2.919378 1.201062 2.757785 1.309038 2.574415 1.385075 C 2.389777 1.461989 2.199058 1.499869 1.999722 1.500469 C 1.801654 1.500192 1.609474 1.462006 1.42659 1.385433 C 1.242436 1.309737 1.080891 1.20149 0.939813 1.060291 C 0.798736 0.919091 0.690246 0.757238 0.614343 0.574733 C 0.538838 0.390072 0.499954 0.198888 0.500229 -0.000574078 C 0.499236 -0.199159 0.538897 -0.390137 0.613666 -0.573431 C 0.689704 -0.757603 0.799334 -0.919886 0.939149 -1.059801 C 1.080232 -1.200594 1.243094 -1.309448 1.426464 -1.385484 C 1.609833 -1.461521 1.801821 -1.500278 1.999888 -1.500001 C 2.199225 -1.500601 2.390136 -1.461538 2.574289 -1.385842 C 2.757174 -1.30927 2.919988 -1.2019 3.061066 -1.0607 C 3.201272 -0.920778 3.310633 -0.757648 3.385267 -0.574265 C 3.462041 -0.390481 3.499656 -0.19842 3.50065 0.000164724 Z M 3.50065 0.000164724 " stroke="#b81f37" stroke-width="1" stroke-opacity="1" stroke-miterlimit="4"/></svg>